solid ASCII
  facet normal 1.000000e+00 -0.000000e+00 3.552714e-15
    outer loop
      vertex   3.815541e+01 -2.910000e+01 5.492704e+01
      vertex   3.815541e+01 4.270000e+01 5.492704e+01
      vertex   3.815541e+01 -2.910000e+01 5.692704e+01
    endloop
  endfacet
  facet normal 1.000000e+00 -0.000000e+00 3.552714e-15
    outer loop
      vertex   3.815541e+01 -2.910000e+01 5.692704e+01
      vertex   3.815541e+01 4.270000e+01 5.492704e+01
      vertex   3.815541e+01 4.270000e+01 5.692704e+01
    endloop
  endfacet
  facet normal 0.000000e+00 -1.000000e+00 0.000000e+00
    outer loop
      vertex   -3.164500e+01 -2.910000e+01 5.492704e+01
      vertex   3.815541e+01 -2.910000e+01 5.492704e+01
      vertex   -3.164500e+01 -2.910000e+01 5.692704e+01
    endloop
  endfacet
  facet normal 0.000000e+00 -1.000000e+00 0.000000e+00
    outer loop
      vertex   -3.164500e+01 -2.910000e+01 5.692704e+01
      vertex   3.815541e+01 -2.910000e+01 5.492704e+01
      vertex   3.815541e+01 -2.910000e+01 5.692704e+01
    endloop
  endfacet
  facet normal -1.000000e+00 -0.000000e+00 -1.776357e-15
    outer loop
      vertex   -3.164500e+01 4.270000e+01 5.492704e+01
      vertex   -3.164500e+01 -2.910000e+01 5.492704e+01
      vertex   -3.164500e+01 4.270000e+01 5.692704e+01
    endloop
  endfacet
  facet normal -1.000000e+00 -0.000000e+00 -1.776357e-15
    outer loop
      vertex   -3.164500e+01 4.270000e+01 5.692704e+01
      vertex   -3.164500e+01 -2.910000e+01 5.492704e+01
      vertex   -3.164500e+01 -2.910000e+01 5.692704e+01
    endloop
  endfacet
  facet normal 0.000000e+00 1.000000e+00 0.000000e+00
    outer loop
      vertex   3.815541e+01 4.270000e+01 5.492704e+01
      vertex   -3.164500e+01 4.270000e+01 5.492704e+01
      vertex   3.815541e+01 4.270000e+01 5.692704e+01
    endloop
  endfacet
  facet normal 0.000000e+00 1.000000e+00 0.000000e+00
    outer loop
      vertex   3.815541e+01 4.270000e+01 5.692704e+01
      vertex   -3.164500e+01 4.270000e+01 5.492704e+01
      vertex   -3.164500e+01 4.270000e+01 5.692704e+01
    endloop
  endfacet
  facet normal -1.730538e-15 0.000000e+00 1.000000e+00
    outer loop
      vertex   3.815541e+01 4.270000e+01 5.692704e+01
      vertex   -3.164500e+01 4.270000e+01 5.692704e+01
      vertex   3.815541e+01 -2.910000e+01 5.692704e+01
    endloop
  endfacet
  facet normal -1.730538e-15 0.000000e+00 1.000000e+00
    outer loop
      vertex   3.815541e+01 -2.910000e+01 5.692704e+01
      vertex   -3.164500e+01 4.270000e+01 5.692704e+01
      vertex   -3.164500e+01 -2.910000e+01 5.692704e+01
    endloop
  endfacet
  facet normal 1.628742e-15 0.000000e+00 -1.000000e+00
    outer loop
      vertex   -3.164500e+01 4.270000e+01 5.492704e+01
      vertex   3.815541e+01 4.270000e+01 5.492704e+01
      vertex   -3.164500e+01 -2.910000e+01 5.492704e+01
    endloop
  endfacet
  facet normal 1.628742e-15 0.000000e+00 -1.000000e+00
    outer loop
      vertex   -3.164500e+01 -2.910000e+01 5.492704e+01
      vertex   3.815541e+01 4.270000e+01 5.492704e+01
      vertex   3.815541e+01 -2.910000e+01 5.492704e+01
    endloop
  endfacet
endsolid
