solid ASCII
  facet normal 1.000000e+00 9.868649e-17 -0.000000e+00
    outer loop
      vertex   3.825541e+01 -2.920000e+01 8.192704e+01
      vertex   3.825541e+01 4.280000e+01 8.192704e+01
      vertex   3.825541e+01 -2.920000e+01 8.392704e+01
    endloop
  endfacet
  facet normal 1.000000e+00 1.973730e-16 3.552714e-15
    outer loop
      vertex   3.825541e+01 -2.920000e+01 8.392704e+01
      vertex   3.825541e+01 4.280000e+01 8.192704e+01
      vertex   3.825541e+01 4.280000e+01 8.392704e+01
    endloop
  endfacet
  facet normal 1.015055e-16 -1.000000e+00 -1.776357e-15
    outer loop
      vertex   -3.174500e+01 -2.920000e+01 8.192704e+01
      vertex   3.825541e+01 -2.920000e+01 8.192704e+01
      vertex   -3.174500e+01 -2.920000e+01 8.392704e+01
    endloop
  endfacet
  facet normal 1.522583e-16 -1.000000e+00 0.000000e+00
    outer loop
      vertex   -3.174500e+01 -2.920000e+01 8.392704e+01
      vertex   3.825541e+01 -2.920000e+01 8.192704e+01
      vertex   3.825541e+01 -2.920000e+01 8.392704e+01
    endloop
  endfacet
  facet normal -1.000000e+00 -1.480297e-16 -1.776357e-15
    outer loop
      vertex   -3.174500e+01 4.280000e+01 8.192704e+01
      vertex   -3.174500e+01 -2.920000e+01 8.192704e+01
      vertex   -3.174500e+01 4.280000e+01 8.392704e+01
    endloop
  endfacet
  facet normal -1.000000e+00 -9.868649e-17 -3.552714e-15
    outer loop
      vertex   -3.174500e+01 4.280000e+01 8.392704e+01
      vertex   -3.174500e+01 -2.920000e+01 8.192704e+01
      vertex   -3.174500e+01 -2.920000e+01 8.392704e+01
    endloop
  endfacet
  facet normal -1.015055e-16 1.000000e+00 -3.606200e-31
    outer loop
      vertex   3.825541e+01 4.280000e+01 8.192704e+01
      vertex   -3.174500e+01 4.280000e+01 8.192704e+01
      vertex   3.825541e+01 4.280000e+01 8.392704e+01
    endloop
  endfacet
  facet normal -1.015055e-16 1.000000e+00 0.000000e+00
    outer loop
      vertex   3.825541e+01 4.280000e+01 8.392704e+01
      vertex   -3.174500e+01 4.280000e+01 8.192704e+01
      vertex   -3.174500e+01 4.280000e+01 8.392704e+01
    endloop
  endfacet
  facet normal -1.827099e-15 -3.606200e-31 1.000000e+00
    outer loop
      vertex   3.825541e+01 4.280000e+01 8.392704e+01
      vertex   -3.174500e+01 4.280000e+01 8.392704e+01
      vertex   3.825541e+01 -2.920000e+01 8.392704e+01
    endloop
  endfacet
  facet normal -1.827099e-15 0.000000e+00 1.000000e+00
    outer loop
      vertex   3.825541e+01 -2.920000e+01 8.392704e+01
      vertex   -3.174500e+01 4.280000e+01 8.392704e+01
      vertex   -3.174500e+01 -2.920000e+01 8.392704e+01
    endloop
  endfacet
  facet normal 1.827099e-15 2.704650e-31 -1.000000e+00
    outer loop
      vertex   -3.174500e+01 4.280000e+01 8.192704e+01
      vertex   3.825541e+01 4.280000e+01 8.192704e+01
      vertex   -3.174500e+01 -2.920000e+01 8.192704e+01
    endloop
  endfacet
  facet normal 1.827099e-15 3.205511e-31 -1.000000e+00
    outer loop
      vertex   -3.174500e+01 -2.920000e+01 8.192704e+01
      vertex   3.825541e+01 4.280000e+01 8.192704e+01
      vertex   3.825541e+01 -2.920000e+01 8.192704e+01
    endloop
  endfacet
endsolid
